<?xml version="1.0" standalone="no"?>
<!DOCTYPE svg PUBLIC "-//W3C//DTD SVG 20010904//EN"
 "http://www.w3.org/TR/2001/REC-SVG-20010904/DTD/svg10.dtd">
<svg version="1.0" xmlns="http://www.w3.org/2000/svg"
 width="1392.000000pt" height="1392.000000pt" viewBox="0 0 1392.000000 1392.000000"
 preserveAspectRatio="xMidYMid meet">
<metadata>
Created by potrace 1.14, written by Peter Selinger 2001-2017
</metadata>
<g transform="translate(0.000000,1392.000000) scale(0.100000,-0.100000)"
fill="#000000" stroke="none">
<path d="M7090 13395 c-30 -7 -70 -20 -88 -29 -43 -22 -104 -89 -118 -129 -9
-24 -18 -33 -40 -35 -16 -2 -33 -7 -39 -11 -5 -5 -28 -9 -50 -10 -22 0 -49 -3
-60 -6 -155 -37 -192 -45 -220 -45 -13 0 -27 -4 -30 -10 -3 -5 -21 -10 -39
-10 -17 0 -36 -4 -42 -9 -12 -12 -124 -41 -157 -41 -14 0 -27 -3 -29 -7 -5
-12 -99 -43 -128 -43 -14 -1 -33 -7 -43 -14 -10 -8 -50 -24 -90 -37 -40 -12
-81 -28 -92 -36 -11 -7 -27 -13 -37 -13 -10 0 -53 -17 -96 -39 -42 -21 -99
-49 -127 -61 -27 -12 -59 -30 -70 -40 -11 -10 -49 -33 -85 -51 -36 -18 -67
-35 -70 -38 -3 -4 -21 -15 -41 -26 -65 -36 -143 -101 -242 -200 -147 -149
-187 -191 -187 -198 0 -8 -59 -94 -87 -127 -10 -11 -18 -24 -19 -28 -1 -6 -20
-53 -44 -107 -20 -46 -75 -290 -140 -625 -10 -52 -30 -149 -45 -215 -14 -66
-39 -185 -55 -265 -16 -80 -35 -167 -41 -195 -5 -27 -26 -124 -45 -214 -19
-91 -35 -165 -37 -166 -1 -1 -24 -10 -52 -20 -27 -10 -106 -45 -175 -78 -69
-32 -161 -76 -205 -97 -44 -21 -160 -77 -259 -124 -98 -47 -185 -86 -193 -86
-8 0 -27 8 -41 19 -107 75 -299 132 -452 133 -160 2 -325 -52 -418 -136 -66
-59 -155 -203 -168 -271 -2 -11 -6 -31 -9 -45 -22 -93 -25 -197 -10 -295 12
-78 11 -86 -13 -160 -72 -220 31 -414 271 -508 37 -15 76 -29 85 -31 103 -19
117 -28 86 -51 -17 -12 -40 -18 -139 -40 -11 -2 -36 -7 -55 -10 -19 -3 -42 -9
-50 -12 -8 -3 -26 -7 -40 -9 -14 -2 -40 -5 -57 -8 -27 -5 -40 0 -68 25 -19 17
-43 44 -51 59 -21 35 -65 61 -99 58 -35 -3 -85 -49 -85 -77 0 -30 23 -82 49
-108 11 -12 17 -24 13 -26 -7 -4 -113 -41 -122 -42 -3 0 -15 -6 -28 -13 -12
-7 -22 -10 -22 -6 0 3 -6 2 -13 -4 -6 -6 -14 -10 -17 -11 -8 0 -43 -12 -77
-27 -17 -8 -35 -14 -41 -14 -5 0 -22 -7 -38 -14 -15 -8 -31 -13 -36 -10 -4 3
-8 1 -8 -4 0 -6 -16 -13 -35 -16 -19 -4 -35 -10 -35 -15 0 -4 -6 -8 -12 -9
-49 -3 -253 -81 -271 -103 -15 -18 -16 -35 -12 -108 4 -47 7 -114 8 -148 1
-35 4 -63 7 -63 3 0 5 -39 5 -88 0 -48 1 -91 4 -96 2 -5 5 -22 6 -37 3 -37 22
-53 65 -58 19 -2 46 -5 60 -6 14 -2 26 -4 28 -5 1 -1 5 -3 10 -4 10 -3 86 -19
92 -20 3 -1 20 -8 38 -16 25 -12 32 -21 33 -45 2 -32 3 -42 14 -120 4 -27 9
-63 11 -80 1 -16 6 -55 10 -85 3 -30 7 -70 8 -87 0 -18 3 -33 6 -33 3 0 5 -10
6 -22 0 -20 4 -48 19 -163 9 -61 25 -162 31 -195 3 -14 7 -36 9 -50 2 -14 11
-53 19 -87 8 -35 12 -63 10 -63 -3 0 0 -8 5 -17 5 -10 11 -31 14 -48 3 -16 15
-64 27 -105 12 -41 23 -79 24 -85 2 -5 8 -23 14 -38 7 -16 12 -33 12 -38 0 -5
4 -17 9 -27 9 -16 23 -50 25 -62 1 -3 14 -31 29 -64 15 -32 27 -62 27 -66 0
-4 9 -19 20 -33 12 -15 21 -29 20 -32 0 -3 6 -18 14 -34 9 -16 13 -39 11 -52
-5 -23 -12 -75 -21 -149 -2 -19 -6 -55 -9 -80 -15 -128 -22 -198 -27 -267 -2
-29 -5 -53 -8 -53 -3 0 -5 -19 -6 -43 -1 -43 -12 -191 -19 -262 -8 -83 -33
-477 -40 -630 -13 -302 -18 -622 -19 -1120 0 -630 7 -937 39 -1840 12 -347 15
-438 20 -650 3 -121 7 -232 9 -248 2 -15 -1 -30 -6 -33 -4 -3 -5 -10 -1 -17 3
-6 7 -72 8 -146 1 -75 5 -146 9 -159 11 -34 58 -54 107 -46 43 7 99 46 99 70
0 12 639 14 4545 14 l4545 0 6 -24 c8 -33 33 -54 72 -61 37 -6 66 6 86 38 19
29 24 60 31 187 4 58 8 119 10 135 13 107 20 539 20 1170 0 651 -5 985 -20
1575 -3 96 -7 434 -10 750 -3 316 -7 616 -10 665 -2 50 -7 160 -10 245 -4 85
-8 175 -10 200 -3 25 -7 86 -10 135 -3 50 -8 106 -9 125 -15 140 -16 249 -4
257 15 9 15 10 93 145 82 143 147 272 187 373 37 92 63 174 60 188 -1 4 3 7
10 7 6 0 9 2 6 5 -3 3 3 36 14 73 11 37 22 81 24 97 3 17 8 37 11 45 3 8 7 23
8 33 2 9 3 18 5 20 3 4 11 42 11 57 1 8 3 22 6 30 7 18 14 58 27 155 2 17 5
30 6 30 1 0 3 16 5 35 2 19 4 35 5 35 3 0 13 67 25 165 2 14 4 25 5 25 1 0 3
14 4 30 7 73 17 156 22 177 3 13 7 41 10 63 2 22 6 51 8 65 3 14 5 30 5 35 2
19 17 35 37 39 10 3 37 11 59 18 22 8 47 14 55 13 8 0 18 4 22 10 5 6 8 5 8
-3 0 -9 5 -10 18 -3 10 5 32 8 50 7 24 -2 39 5 58 25 15 16 24 34 21 42 -3 8
-3 17 0 20 5 5 9 69 17 242 1 33 4 65 7 70 3 6 7 51 8 100 3 115 -1 119 -139
160 -3 1 -18 7 -33 13 -16 7 -30 12 -33 12 -4 0 -119 45 -209 81 -16 7 -34 13
-40 15 -5 1 -49 19 -97 38 -48 20 -95 36 -103 36 -8 0 -15 5 -15 11 0 6 -7 9
-15 5 -8 -3 -15 0 -15 6 0 6 -3 8 -6 5 -4 -3 -15 -2 -26 4 -19 10 -18 12 11
33 77 57 118 119 105 160 -11 38 -51 72 -81 70 -16 -1 -34 -3 -41 -3 -6 -1
-22 -13 -35 -27 -51 -60 -223 -164 -246 -149 -14 8 -49 16 -81 19 -14 1 -30 5
-35 8 -6 3 -28 9 -50 13 -22 4 -47 9 -55 12 -8 3 -20 7 -26 8 -6 2 -38 23 -72
48 l-60 44 27 34 c92 115 216 349 255 484 15 50 31 103 36 118 5 15 7 90 6
165 -3 112 -8 147 -25 191 -56 138 -102 202 -210 293 -53 45 -170 92 -261 106
-57 9 -201 8 -261 -1 -44 -7 -137 -31 -169 -44 -8 -4 -17 -7 -20 -8 -32 -8
-143 -76 -203 -124 -87 -69 -144 -128 -234 -243 -36 -46 -68 -86 -72 -91 -4
-4 -37 12 -74 36 -37 24 -65 46 -62 48 2 3 6 43 8 90 1 46 6 90 10 96 4 6 3
14 -2 18 -6 3 -8 12 -5 20 5 13 14 169 13 243 0 25 4 32 13 26 10 -6 10 -5 2
7 -7 8 -13 52 -14 99 -1 47 -4 121 -5 165 -2 44 -7 157 -10 250 -8 229 -11
277 -30 370 -8 44 -15 94 -15 112 0 17 -4 35 -10 38 -5 3 -10 26 -10 50 0 24
-4 47 -10 50 -5 3 -10 19 -10 35 0 16 -4 32 -10 35 -5 3 -10 16 -10 28 0 12
-6 39 -14 62 -8 22 -22 66 -31 97 -9 32 -21 60 -26 64 -5 3 -9 13 -9 23 0 9
-11 39 -24 67 -12 27 -31 72 -42 99 -16 45 -90 183 -103 195 -3 3 -7 14 -9 25
-2 11 -23 45 -47 77 -24 31 -50 69 -58 85 -9 15 -25 35 -36 43 -12 8 -21 20
-21 27 0 7 -4 13 -10 13 -5 0 -10 5 -10 11 0 15 -72 102 -140 169 -153 150
-294 280 -305 280 -4 0 -29 19 -59 45 -6 6 -23 16 -38 24 -15 8 -37 22 -47 33
-11 10 -24 18 -29 18 -5 0 -17 9 -27 20 -10 11 -23 20 -30 20 -6 0 -17 6 -23
13 -7 6 -16 12 -20 12 -13 1 -91 45 -97 55 -3 5 -14 10 -25 10 -10 0 -20 6
-23 14 -3 7 -21 16 -40 20 -19 4 -40 13 -47 21 -7 8 -17 15 -22 15 -6 0 -40
14 -77 31 -36 17 -84 40 -107 50 -22 10 -46 19 -53 19 -7 0 -25 6 -39 14 -15
8 -67 26 -117 41 -49 15 -97 30 -105 35 -8 4 -38 12 -66 19 -28 7 -68 18 -90
26 -36 12 -39 16 -46 61 -7 47 -35 83 -65 84 -7 0 -13 4 -13 8 0 7 -14 14
-115 53 -44 18 -93 24 -240 33 -22 1 -65 -3 -95 -9z"/>
</g>
</svg>
